<?xml version="1.0" encoding="UTF-8"?>
<svg version="1.1" xmlns="http://www.w3.org/2000/svg" width="600" height="600">
<path d="M0 0 C1.875 1.0625 1.875 1.0625 3 3 C2.8125 6.625 2.8125 6.625 2 10 C1.34 10.33 0.68 10.66 0 11 C0.45002349 14.35533544 0.911526 17.70899819 1.375 21.0625 C1.56449219 22.47692383 1.56449219 22.47692383 1.7578125 23.91992188 C2.48116298 29.10996155 3.40684931 34.00581892 5 39 C8.27459098 38.44024086 9.75442044 37.66077275 11.75 35 C14.32782009 31.23061957 14.18322134 28.39371839 13.93359375 23.9609375 C14 22 14 22 15.625 19.875 C18.82839724 18.69480102 20.75806109 19.01332294 24 20 C26 23 26 23 26.125 26.4375 C25 30 25 30 23.28515625 31.09765625 C21.86644901 31.70793814 20.44444753 32.31060932 19.01953125 32.90625 C15.44329662 34.84308887 14.46571101 37.26909924 13 41 C13.54217768 43.33664149 13.54217768 43.33664149 15 45 C15.33 45.66 15.66 46.32 16 47 C18.52733235 47.65555119 18.52733235 47.65555119 21 48 C21.309375 47.360625 21.61875 46.72125 21.9375 46.0625 C23 44 23 44 24 43 C27.3125 42.625 27.3125 42.625 31 43 C33.5 45.125 33.5 45.125 35 48 C35 51.50732933 34.6345092 53.2434698 32.375 55.9375 C28.9175022 57.48427533 26.61548831 56.92030612 23 56 C21.0625 54.4375 21.0625 54.4375 20 53 C19.01 53.66 18.02 54.32 17 55 C18.69900185 56.01577335 20.40970451 57.0119898 22.125 58 C23.07632813 58.556875 24.02765625 59.11375 25.0078125 59.6875 C28.27291026 61.11970998 30.47965406 61.16326242 34 61 C35 62 35 62 35.0625 64.5625 C35.041875 65.366875 35.02125 66.17125 35 67 C33.35 67.33 31.7 67.66 30 68 C29.69449219 67.09507812 29.69449219 67.09507812 29.3828125 66.171875 C27.42768504 63.10110983 25.23538233 62.53695494 21.875 61.25 C20.77929688 60.82203125 19.68359375 60.3940625 18.5546875 59.953125 C17.29011719 59.48132813 17.29011719 59.48132813 16 59 C19.30251663 62.03550464 22.64160253 65.02646664 26 68 C26.87269531 68.78503906 27.74539063 69.57007813 28.64453125 70.37890625 C33.64247871 74.98032934 33.64247871 74.98032934 40 76.375 C40.99 76.25125 41.98 76.1275 43 76 C45 78 45 78 45.3125 81.5 C45.209375 82.655 45.10625 83.81 45 85 C41.77856724 87.14762184 40.7404533 87.561068 37 87 C34.77541217 84.85780431 34.06632034 83.34356926 33.48046875 80.30859375 C31.24325407 75.30880263 27.33786261 72.88046234 23 69.6875 C22.16726563 69.05521484 21.33453125 68.42292969 20.4765625 67.77148438 C16.40728206 64.61924198 16.40728206 64.61924198 12 62 C12.33 62.763125 12.66 63.52625 13 64.3125 C14 67 14 67 14 70 C14.763125 69.9175 15.52625 69.835 16.3125 69.75 C19 70 19 70 20.875 71.625 C22.38776998 74.81862551 21.94757993 76.64702485 21 80 C19 82 19 82 15.5625 82.3125 C12 82 12 82 10 81 C8.60635847 78.21271695 9.34888276 76.04807293 9.87109375 73.07421875 C10.07192187 69.84271177 8.67216818 67.67546908 7 65 C6.34 65 5.68 65 5 65 C4.58340056 66.93314127 4.19235163 68.87180347 3.8125 70.8125 C3.48185547 72.43091797 3.48185547 72.43091797 3.14453125 74.08203125 C2.6615086 77.00098565 2.6615086 77.00098565 4.453125 78.6640625 C5.21882813 79.32535156 5.21882813 79.32535156 6 80 C5.9375 83.5625 5.9375 83.5625 5 87 C2.67264764 88.99487345 1.47475877 89.03473845 -1.5625 88.8125 C-4.14918841 87.95027053 -5.28335317 87.07804617 -7 85 C-7.99 85.99 -7.99 85.99 -9 87 C-11.125 86.625 -11.125 86.625 -13 86 C-13.33 84.35 -13.66 82.7 -14 81 C-13.37609375 80.93941406 -12.7521875 80.87882812 -12.109375 80.81640625 C-9.76632566 80.19151441 -9.76632566 80.19151441 -8.953125 77.71484375 C-8.72109375 76.79832031 -8.4890625 75.88179688 -8.25 74.9375 C-8.00765625 74.01839844 -7.7653125 73.09929687 -7.515625 72.15234375 C-7.34546875 71.44207031 -7.1753125 70.73179687 -7 70 C-8.85825347 72.31678355 -10.68491786 74.6497585 -12.5 77 C-13.02464844 77.64839844 -13.54929687 78.29679687 -14.08984375 78.96484375 C-17.88437573 83.94208699 -18.35323953 86.80164604 -18 93 C-20.1875 95.125 -20.1875 95.125 -23 96 C-25.8125 95.1875 -25.8125 95.1875 -28 94 C-28.33 91.69 -28.66 89.38 -29 87 C-25.93882432 84.37613513 -25.26826873 84 -21 84 C-19.21425957 81.68208527 -17.73117706 79.49918475 -16.25 77 C-15.83878906 76.33226562 -15.42757813 75.66453125 -15.00390625 74.9765625 C-13.98971657 73.32555605 -12.99315402 71.6637452 -12 70 C-12.95132812 69.84724609 -12.95132812 69.84724609 -13.921875 69.69140625 C-14.60765625 69.46324219 -15.2934375 69.23507812 -16 69 C-17.25 65.9375 -17.25 65.9375 -18 63 C-18.0825 63.763125 -18.165 64.52625 -18.25 65.3125 C-19 68 -19 68 -20.75 69.875 C-23 71 -23 71 -25.5625 70.875 C-29.52941176 69.45098039 -29.52941176 69.45098039 -31 67 C-30.9375 63.4375 -30.9375 63.4375 -30 60 C-28.4375 58.5 -28.4375 58.5 -26 58 C-24.05722124 58.32379646 -22.11445602 58.64767559 -20.171875 58.97265625 C-16.27975661 59.02165774 -13.23249588 57.0031158 -10 55 C-10 53.35 -10 51.7 -10 50 C-10.81984375 50.11859375 -11.6396875 50.2371875 -12.484375 50.359375 C-13.56203125 50.48828125 -14.6396875 50.6171875 -15.75 50.75 C-16.81734375 50.88921875 -17.8846875 51.0284375 -18.984375 51.171875 C-22 51 -22 51 -24.359375 49.203125 C-26 47 -26 47 -26.5 44 C-25.89149624 40.34897746 -24.89619126 39.23420469 -22 37 C-20.515 36.505 -20.515 36.505 -19 36 C-20.98 35.34 -22.96 34.68 -25 34 C-25.33 32.35 -25.66 30.7 -26 29 C-24.35 28.67 -22.7 28.34 -21 28 C-20.46890625 28.89976562 -19.9378125 29.79953125 -19.390625 30.7265625 C-17.07262629 34.20356056 -14.29112773 36.14254991 -10.75 38.375 C-9.67234375 39.06335938 -8.5946875 39.75171875 -7.484375 40.4609375 C-6.25460937 41.22277344 -6.25460937 41.22277344 -5 42 C-8.33596175 35.01534337 -8.33596175 35.01534337 -14.25 30.5625 C-15.1575 30.376875 -16.065 30.19125 -17 30 C-19 27 -19 27 -18.75 23.9375 C-18 21 -18 21 -16 19 C-11.94738713 18.65509678 -10.45245824 18.69836118 -7 21 C-6.8828125 22.91796875 -6.8828125 22.91796875 -7.125 25.1875 C-7.35304176 30.62541889 -5.37139482 32.87004135 -2 37 C-2 37.66 -2 38.32 -2 39 C-1.34 39 -0.68 39 0 39 C-0.09087891 38.3294458 -0.18175781 37.6588916 -0.27539062 36.96801758 C-0.68699213 33.91662567 -1.09354405 30.86458139 -1.5 27.8125 C-1.64308594 26.75740234 -1.78617187 25.70230469 -1.93359375 24.61523438 C-2.06894531 23.59365234 -2.20429688 22.57207031 -2.34375 21.51953125 C-2.46943359 20.58214111 -2.59511719 19.64475098 -2.72460938 18.67895508 C-2.99004692 16.09682192 -3.04936064 13.59349011 -3 11 C-3.639375 10.855625 -4.27875 10.71125 -4.9375 10.5625 C-7 10 -7 10 -8 9 C-8.25 5.5625 -8.25 5.5625 -8 2 C-4.76746204 -0.15502531 -3.74849077 -0.46856135 0 0 Z M-12 41 C-11.67 42.32 -11.34 43.64 -11 45 C-10.01 44.67 -9.02 44.34 -8 44 C-9.32 43.01 -10.64 42.02 -12 41 Z M-0.25 47.6875 C-2.24601173 49.85746614 -2.24601173 49.85746614 -2.0625 52.5625 C-0.68728394 55.71740744 0.96170139 56.51980324 4 58 C6.60943058 56.9354148 6.60943058 56.9354148 9 55 C9.75 52 9.75 52 9 49 C7.2890789 47.02901574 7.2890789 47.02901574 5 46 C1.93125 45.7 1.93125 45.7 -0.25 47.6875 Z M-14 61 C-13.54625 61.433125 -13.0925 61.86625 -12.625 62.3125 C-11 64 -11 64 -9 67 C-6.37613513 63.93882432 -6 63.26826873 -6 59 C-9.20395416 59 -11.09399739 59.74335022 -14 61 Z M-1 65 C-2.17407021 67.26727333 -3.33939739 69.53834624 -4.5 71.8125 C-4.83386719 72.45509766 -5.16773438 73.09769531 -5.51171875 73.75976562 C-7.00239084 76.69547699 -8 78.66126517 -8 82 C-7.34 82 -6.68 82 -6 82 C-5.731875 81.38125 -5.46375 80.7625 -5.1875 80.125 C-4 78 -4 78 -1 76 C-0.41651248 73.3443272 -0.41651248 73.3443272 -0.3125 70.375 C-0.24675781 69.37210937 -0.18101562 68.36921875 -0.11328125 67.3359375 C-0.07589844 66.56507813 -0.03851563 65.79421875 0 65 C-0.33 65 -0.66 65 -1 65 Z " fill="#008274" transform="translate(314,235)"/>
<path d="M0 0 C0.77988281 -0.03738281 1.55976563 -0.07476562 2.36328125 -0.11328125 C5.68122505 0.49454375 6.55968814 1.68116015 8.6875 4.3125 C10.59805226 7.19329211 12.36743919 10.14899263 14.125 13.125 C17.43934612 18.70100811 20.84203817 24.08518437 24.6875 29.3125 C24.71255615 28.46953369 24.7376123 27.62656738 24.76342773 26.75805664 C24.85838155 23.64008326 24.95762448 20.52228497 25.05981445 17.40454102 C25.10321223 16.05335853 25.1448837 14.70211947 25.18481445 13.35083008 C25.24239952 11.41213299 25.30664298 9.47363724 25.37109375 7.53515625 C25.40775146 6.36734619 25.44440918 5.19953613 25.48217773 3.99633789 C25.6875 1.3125 25.6875 1.3125 26.6875 0.3125 C28.68549572 0.21376184 30.68707158 0.18278201 32.6875 0.1875 C33.780625 0.18492187 34.87375 0.18234375 36 0.1796875 C38.6875 0.3125 38.6875 0.3125 39.6875 1.3125 C39.78126053 3.12305025 39.8049411 4.93727201 39.80102539 6.75024414 C39.80094986 7.91137222 39.80087433 9.07250031 39.80079651 10.26881409 C39.79563522 11.532332 39.79047394 12.79584991 39.78515625 14.09765625 C39.7837413 15.38361191 39.78232635 16.66956757 39.78086853 17.99449158 C39.77704418 21.41893443 39.76721462 24.84333509 39.75616455 28.26776123 C39.74594864 31.75988189 39.74137053 35.25200934 39.73632812 38.74414062 C39.72559227 45.60027778 39.70851684 52.45638687 39.6875 59.3125 C37.90520823 59.36038561 36.12254996 59.39478189 34.33984375 59.42333984 C32.85085571 59.45420181 32.85085571 59.45420181 31.33178711 59.48568726 C28.6875 59.3125 28.6875 59.3125 26.25 57.5390625 C25.734375 56.68054688 25.21875 55.82203125 24.6875 54.9375 C24.06875 53.95394531 23.45 52.97039062 22.8125 51.95703125 C22.48378906 51.39193848 22.15507812 50.8268457 21.81640625 50.24462891 C20.50177381 47.99462866 19.12830621 45.7857657 17.75 43.57421875 C15.01322034 39.18079165 12.35681935 34.75024342 9.6875 30.3125 C9.3575 39.8825 9.0275 49.4525 8.6875 59.3125 C4.0675 59.3125 -0.5525 59.3125 -5.3125 59.3125 C-5.33505549 51.76751411 -5.35341769 44.22254069 -5.36431217 36.67752934 C-5.36953989 33.17441115 -5.3766355 29.67131715 -5.38793945 26.16821289 C-5.40084206 22.14469159 -5.40572912 18.12119586 -5.41015625 14.09765625 C-5.41789818 12.20237938 -5.41789818 12.20237938 -5.42579651 10.26881409 C-5.42587204 9.107686 -5.42594757 7.94655792 -5.42602539 6.75024414 C-5.42935631 5.2080294 -5.42935631 5.2080294 -5.43275452 3.63465881 C-5.22773296 -0.32438257 -3.56187577 0.11076209 0 0 Z " fill="#00B359" transform="translate(381.3125,256.6875)"/>
<path d="M0 0 C1.093125 0.00257813 2.18625 0.00515625 3.3125 0.0078125 C4.405625 0.00523437 5.49875 0.00265625 6.625 0 C9.3125 0.1328125 9.3125 0.1328125 10.3125 1.1328125 C10.39935603 2.69453995 10.41952219 4.26010594 10.41015625 5.82421875 C10.40693359 6.76845703 10.40371094 7.71269531 10.40039062 8.68554688 C10.39201172 9.67876953 10.38363281 10.67199219 10.375 11.6953125 C10.37048828 12.69240234 10.36597656 13.68949219 10.36132812 14.71679688 C10.34950023 17.18882737 10.33156415 19.66082722 10.3125 22.1328125 C15.5925 22.1328125 20.8725 22.1328125 26.3125 22.1328125 C26.30089844 20.62847656 26.28929688 19.12414062 26.27734375 17.57421875 C26.26796751 15.61458457 26.25886713 13.65494905 26.25 11.6953125 C26.24162109 10.70208984 26.23324219 9.70886719 26.22460938 8.68554688 C26.21977539 7.26918945 26.21977539 7.26918945 26.21484375 5.82421875 C26.20698853 4.51239624 26.20698853 4.51239624 26.19897461 3.17407227 C26.3125 1.1328125 26.3125 1.1328125 27.3125 0.1328125 C29.31049572 0.03407434 31.31207158 0.00309451 33.3125 0.0078125 C34.405625 0.00523437 35.49875 0.00265625 36.625 0 C39.3125 0.1328125 39.3125 0.1328125 40.3125 1.1328125 C40.40626053 2.94336275 40.4299411 4.75758451 40.42602539 6.57055664 C40.42594986 7.73168472 40.42587433 8.89281281 40.42579651 10.08912659 C40.42063522 11.3526445 40.41547394 12.61616241 40.41015625 13.91796875 C40.4087413 15.20392441 40.40732635 16.48988007 40.40586853 17.81480408 C40.40204418 21.23924693 40.39221462 24.66364759 40.38116455 28.08807373 C40.37094864 31.58019439 40.36637053 35.07232184 40.36132812 38.56445312 C40.35059226 45.42059203 40.33299614 52.2766959 40.3125 59.1328125 C35.6925 59.1328125 31.0725 59.1328125 26.3125 59.1328125 C26.3125 51.5428125 26.3125 43.9528125 26.3125 36.1328125 C21.0325 36.1328125 15.7525 36.1328125 10.3125 36.1328125 C10.3125 43.7228125 10.3125 51.3128125 10.3125 59.1328125 C5.6925 59.1328125 1.0725 59.1328125 -3.6875 59.1328125 C-3.71005549 51.58782661 -3.72841769 44.04285319 -3.73931217 36.49784184 C-3.74453989 32.99472365 -3.7516355 29.49162965 -3.76293945 25.98852539 C-3.77584206 21.96500409 -3.78072912 17.94150836 -3.78515625 13.91796875 C-3.79289818 12.02269188 -3.79289818 12.02269188 -3.80079651 10.08912659 C-3.80087204 8.9279985 -3.80094757 7.76687042 -3.80102539 6.57055664 C-3.80435631 5.0283419 -3.80435631 5.0283419 -3.80775452 3.45497131 C-3.63420036 0.10357696 -3.38041097 0.16705519 0 0 Z " fill="#004594" transform="translate(40.6875,256.8671875)"/>
<path d="M0 0 C3.63 0 7.26 0 11 0 C11.0992969 6.11974418 11.17167096 12.23901352 11.21972656 18.359375 C11.23977159 20.43888525 11.26701513 22.51833963 11.30175781 24.59765625 C11.35058948 27.59649487 11.37304028 30.59458463 11.390625 33.59375 C11.41127014 34.51490601 11.43191528 35.43606201 11.45318604 36.38513184 C11.45559219 43.3960182 9.85281214 48.62612628 5.2890625 54.0234375 C-0.64958039 58.84684229 -5.79939915 60.50455738 -13.4765625 60.30859375 C-20.26181423 59.47881838 -24.56490769 55.95374473 -28.7734375 50.78125 C-32.886558 44.8080559 -32.66341836 39.10197864 -32 32 C-30.50078887 26.12650829 -27.08508287 22.53593984 -22.12890625 19.1953125 C-14.77987903 15.06906969 -9.06305474 16.18581268 -1 18 C-0.67 12.06 -0.34 6.12 0 0 Z M-18 30.0625 C-20.40813237 33.59944442 -21 35.72563406 -21 40 C-19.76500671 43.56775839 -18.60665099 45.47760609 -15.75 47.9375 C-11.99753045 49.38731778 -9.85404289 49.10115511 -6 48 C-2.45718617 45.38139847 -1.21330957 43.74658348 0 39.5 C0 34.86532224 -1.46306697 32.85150997 -4.3359375 29.390625 C-7.00438337 27.16065615 -9.41576911 27.4640679 -12.7734375 27.58984375 C-15.28578331 27.89615051 -15.28578331 27.89615051 -18 30.0625 Z " fill="#00B359" transform="translate(507,257)"/>
<path d="M0 0 C6.6276418 7.17994529 7.25 12.49853914 7.25 22.4375 C-2.65 22.7675 -12.55 23.0975 -22.75 23.4375 C-19.20176068 26.98573932 -17.65338515 27.1794271 -12.75 27.4375 C-12.16605469 27.11394531 -11.58210937 26.79039062 -10.98046875 26.45703125 C-7.78400432 24.99595031 -4.99108614 25.24785026 -1.5 25.3125 C-0.23671875 25.33054687 1.0265625 25.34859375 2.328125 25.3671875 C3.29234375 25.39039063 4.2565625 25.41359375 5.25 25.4375 C4.22775185 30.43037517 1.56543896 33.72586031 -2.47265625 36.7109375 C-8.03271022 39.93051701 -13.44946526 40.21091893 -19.75 39.4375 C-25.7630241 37.56459085 -30.9002559 34.7590219 -34.01171875 29.171875 C-37.00008492 22.33533205 -37.91492632 16.62805696 -35.6875 9.375 C-33.1700951 3.39910426 -28.73584358 -1.01267859 -22.75 -3.5 C-14.57748147 -6.02548077 -7.25759183 -4.12363172 0 0 Z M-23.75 12.4375 C-17.81 12.4375 -11.87 12.4375 -5.75 12.4375 C-9.88355667 7.54332932 -9.88355667 7.54332932 -12.8125 6.7734375 C-13.451875 6.78632813 -14.09125 6.79921875 -14.75 6.8125 C-15.389375 6.79960937 -16.02875 6.78671875 -16.6875 6.7734375 C-19.61644333 7.54332932 -19.61644333 7.54332932 -23.75 12.4375 Z " fill="#00B359" transform="translate(558.75,277.5625)"/>
<path d="M0 0 C3.63981561 3.23539166 6.17332598 6.88325919 7.72265625 11.53125 C7.72265625 15.16125 7.72265625 18.79125 7.72265625 22.53125 C-2.17734375 22.86125 -12.07734375 23.19125 -22.27734375 23.53125 C-18.71418897 27.09440478 -17.20555421 27.27634256 -12.27734375 27.53125 C-11.52839844 27.20769531 -10.77945313 26.88414062 -10.0078125 26.55078125 C-6.53806454 25.25521012 -3.65698954 25.33723793 0.03515625 25.40625 C1.28941406 25.42429687 2.54367188 25.44234375 3.8359375 25.4609375 C5.26486328 25.49574219 5.26486328 25.49574219 6.72265625 25.53125 C5.00393695 29.26035007 3.53412459 32.15709961 0.34765625 34.78125 C-0.21695313 35.26078125 -0.7815625 35.7403125 -1.36328125 36.234375 C-6.99598548 40.0508195 -12.67327353 40.28150202 -19.27734375 39.53125 C-25.70952484 37.52458305 -30.46367851 33.62021756 -33.8828125 27.796875 C-36.4803477 21.71413151 -36.63761932 14.26910125 -34.36328125 8.01953125 C-31.14255549 2.56507633 -26.92809111 -1.32529036 -21.08984375 -3.84375 C-13.40069245 -5.10426661 -6.47787308 -4.57574608 0 0 Z M-22.27734375 10.53125 C-22.27734375 11.19125 -22.27734375 11.85125 -22.27734375 12.53125 C-16.66734375 12.53125 -11.05734375 12.53125 -5.27734375 12.53125 C-9.40030709 7.5952984 -9.40030709 7.5952984 -12.375 6.9375 C-16.53750391 7.13610854 -19.38249003 7.39515847 -22.27734375 10.53125 Z " fill="#004594" transform="translate(123.27734375,277.46875)"/>
<path d="M0 0 C3.63 0 7.26 0 11 0 C11.33 5.61 11.66 11.22 12 17 C12.99 16.67 13.98 16.34 15 16 C22.06506242 15.44587746 27.3830621 16.89507169 32.875 21.3125 C36.72404007 26.18040362 37.24914112 30.84705355 37.1953125 36.9296875 C37.18886719 38.21875 37.18242187 39.5078125 37.17578125 40.8359375 C37.15907463 42.18229442 37.14214479 43.52864859 37.125 44.875 C37.11495664 46.24478517 37.10583317 47.61457742 37.09765625 48.984375 C37.07414412 52.32309756 37.0412793 55.66145761 37 59 C33.37 59 29.74 59 26 59 C25.95101562 57.49308594 25.90203125 55.98617187 25.8515625 54.43359375 C25.77649339 52.43487882 25.70094738 50.43618175 25.625 48.4375 C25.5940625 47.44685547 25.563125 46.45621094 25.53125 45.43554688 C25.55771353 36.64539156 25.55771353 36.64539156 22 29 C18.54178598 28.74996036 18.54178598 28.74996036 15 29 C11.63486903 32.36513097 11.85500513 36.03700507 11.68359375 40.640625 C11.64169922 41.71054687 11.59980469 42.78046875 11.55664062 43.8828125 C11.49766602 45.54957031 11.49766602 45.54957031 11.4375 47.25 C11.39431641 48.37664062 11.35113281 49.50328125 11.30664062 50.6640625 C11.20068067 53.44256799 11.0998474 56.22126814 11 59 C7.37 59 3.74 59 0 59 C0 39.53 0 20.06 0 0 Z " fill="#004594" transform="translate(227,257)"/>
<path d="M0 0 C3.54624508 3.07009594 5.45728805 6.2117079 6.94921875 10.6875 C7.03237627 12.75248892 7.05657753 14.8200789 7.046875 16.88671875 C7.04365234 18.09521484 7.04042969 19.30371094 7.03710938 20.54882812 C7.02454102 22.4427832 7.02454102 22.4427832 7.01171875 24.375 C7.00720703 25.64923828 7.00269531 26.92347656 6.99804688 28.23632812 C6.98624748 31.38676564 6.96978472 34.53710949 6.94921875 37.6875 C3.31921875 37.6875 -0.31078125 37.6875 -4.05078125 37.6875 C-4.38078125 37.0275 -4.71078125 36.3675 -5.05078125 35.6875 C-5.66953125 36.1825 -6.28828125 36.6775 -6.92578125 37.1875 C-11.92890788 39.58900078 -16.94576458 39.60750494 -22.265625 38.03125 C-28.54577072 35.23471678 -33.51040568 30.1077219 -36.05078125 23.6875 C-36.91470569 16.09300142 -36.86155136 8.91493861 -32.05078125 2.6875 C-22.83145609 -6.92623479 -10.6093121 -7.70239761 0 0 Z M-22.05078125 8.75 C-24.45891362 12.28694442 -25.05078125 14.41313406 -25.05078125 18.6875 C-23.75659342 22.64619219 -22.67507805 24.25742887 -19.23828125 26.625 C-15.50993583 27.86778181 -13.76546537 27.95207332 -10.05078125 26.6875 C-6.59784959 24.0786183 -5.26408784 22.4207414 -4.05078125 18.25 C-4.05078125 14.15655764 -4.83074103 12.09684749 -7.05078125 8.6875 C-12.03644088 5.36372692 -17.09834744 5.34520176 -22.05078125 8.75 Z " fill="#004594" transform="translate(171.05078125,278.3125)"/>
<path d="M0 0 C5.54759349 3.62727267 8.2672721 7.70182611 10 14 C10.98837651 21.09008862 10.34528672 27.17655123 6 33 C1.00425977 38.43120427 -3.94424185 40.99440248 -11.375 41.3125 C-17.35166379 41.11227676 -21.79649061 40.06147133 -26.2421875 35.90234375 C-32.43603939 29.12437416 -33.41386458 24.69246791 -33.34765625 15.52734375 C-32.73512335 9.31254362 -29.97242304 5.97242304 -25.6875 1.6875 C-17.19082738 -3.64762002 -9.09648134 -4.57603033 0 0 Z M-21 14 C-22.75430952 17.50861903 -21.9570916 21.29044495 -21 25 C-18.48948337 27.86916187 -16.66850285 28.78664803 -13.0625 29.9375 C-9.22675807 30.01578045 -7.21430529 29.04546701 -4 27 C-1.3209427 22.98141405 -1.30389306 19.72358279 -2 15 C-3.79393668 12.12970131 -4.98263276 10.50868362 -8 9 C-14.38289065 8.37217469 -16.83567974 8.69995604 -21 14 Z " fill="#00B359" transform="translate(461,276)"/>
<path d="M0 0 C3.96 0 7.92 0 12 0 C12 5.61 12 11.22 12 17 C14.64 17 17.28 17 20 17 C20 20.63 20 24.26 20 28 C17.36 28 14.72 28 12 28 C12.11426509 30.41760876 12.24099661 32.83347218 12.375 35.25 C12.4059375 35.93191406 12.436875 36.61382812 12.46875 37.31640625 C12.68292322 42.52014765 12.68292322 42.52014765 15 47 C16.65 47.33 18.3 47.66 20 48 C20 51.96 20 55.92 20 60 C13.30880762 59.69117574 8.81661032 58.85587617 4 54 C-1.10554627 46.17149572 -0.12157452 36.98300599 0 28 C-1.98 28 -3.96 28 -6 28 C-6 24.37 -6 20.74 -6 17 C-4.02 17 -2.04 17 0 17 C0 11.39 0 5.78 0 0 Z " fill="#004594" transform="translate(203,257)"/>
<path d="M0 0 C3.96 0 7.92 0 12 0 C12 19.47 12 38.94 12 59 C8.04 59 4.08 59 0 59 C0 39.53 0 20.06 0 0 Z " fill="#004595" transform="translate(183,257)"/>
<path d="M0 0 C2.4375 1.0625 2.4375 1.0625 4.375 3.3125 C5.4375 6.0625 5.4375 6.0625 4.9375 8.8125 C3.4375 11.0625 3.4375 11.0625 1.0625 12 C-1.93630982 12.07140023 -3.23579505 11.97372193 -5.5625 10.0625 C-6.5625 7.1875 -6.5625 7.1875 -6.5625 4.0625 C-4.58387819 1.09456728 -3.61147323 0.08808471 0 0 Z " fill="#00B358" transform="translate(274.5625,296.9375)"/>
<path d="M0 0 C3 0.25 3 0.25 5 2.25 C5.25 5.75 5.25 5.75 5 9.25 C3 11.25 3 11.25 0.0625 11.625 C-3 11.25 -3 11.25 -4.9375 9.5625 C-6.28233625 6.63550346 -6.03115662 5.26415011 -5 2.25 C-3 0.25 -3 0.25 0 0 Z " fill="#00B359" transform="translate(317,327.75)"/>
<path d="M0 0 C1 1 1 1 1.1875 4.4375 C1 8 1 8 -1 10 C-4.13704316 10.333728 -6.16554166 10.52849028 -8.875 8.8125 C-10.40659584 6.34492892 -10.42822025 4.85480169 -10 2 C-7.59027568 -2.25245468 -4.23782457 -0.94173879 0 0 Z " fill="#00B359" transform="translate(335,327)"/>
<path d="M0 0 C1.875 1.0625 1.875 1.0625 3 3 C2.8125 6.625 2.8125 6.625 2 10 C-0.76250036 11.38125018 -2.94731099 11.19079306 -6 11 C-8 9 -8 9 -8.3125 6.0625 C-8 3 -8 3 -6.8125 1.125 C-4.34492892 -0.40659584 -2.85480169 -0.42822025 0 0 Z " fill="#004594" transform="translate(275,270)"/>
<path d="M0 0 C1.7325 0.1546875 1.7325 0.1546875 3.5 0.3125 C5.65502531 3.54503796 5.96856135 4.56400923 5.5 8.3125 C4.3125 10.125 4.3125 10.125 2.5 11.3125 C-0.35480169 11.74072025 -1.84492892 11.71909584 -4.3125 10.1875 C-6.02849028 7.47804166 -5.833728 5.44954316 -5.5 2.3125 C-3.5 0.3125 -3.5 0.3125 0 0 Z " fill="#004594" transform="translate(286.5,246.6875)"/>
<path d="M0 0 C0.66 0.66 1.32 1.32 2 2 C1.625 5.625 1.625 5.625 1 9 C-1.1875 10.1875 -1.1875 10.1875 -4 11 C-6.8125 10 -6.8125 10 -9 8 C-9.5625 5 -9.5625 5 -9 2 C-6.12524616 -1.3006433 -4.03854228 -1.38160657 0 0 Z " fill="#004594" transform="translate(342,240)"/>
<path d="M0 0 C2.9375 0.875 2.9375 0.875 4.9375 3.875 C4.38194444 9.43055556 4.38194444 9.43055556 2.9375 10.875 C-0.5 11.0625 -0.5 11.0625 -4.0625 10.875 C-6.0625 8.875 -6.0625 8.875 -6.375 5.9375 C-6.0625 2.875 -6.0625 2.875 -4.9375 0.9375 C-3.0625 -0.125 -3.0625 -0.125 0 0 Z " fill="#00B359" transform="translate(365.0625,285.125)"/>
<path d="M0 0 C0.66 0.66 1.32 1.32 2 2 C1.625 5.625 1.625 5.625 1 9 C-1.1875 10.1875 -1.1875 10.1875 -4 11 C-6.8125 10 -6.8125 10 -9 8 C-9.5625 5 -9.5625 5 -9 2 C-6.12524616 -1.3006433 -4.03854228 -1.38160657 0 0 Z " fill="#004594" transform="translate(362,259)"/>
<path d="M0 0 C2.97 0.495 2.97 0.495 6 1 C6.125 3.375 6.125 3.375 6 6 C5.34 6.66 4.68 7.32 4 8 C1.375 7.625 1.375 7.625 -1 7 C-1.625 5.1875 -1.625 5.1875 -2 3 C-1.34 2.01 -0.68 1.02 0 0 Z " fill="#004594" transform="translate(282,284)"/>
<path d="M0 0 C1.2065625 0.0309375 1.2065625 0.0309375 2.4375 0.0625 C3.0975 1.7125 3.7575 3.3625 4.4375 5.0625 C3.4475 6.0525 2.4575 7.0425 1.4375 8.0625 C-1.0375 7.0725 -1.0375 7.0725 -3.5625 6.0625 C-3.605221 4.39638095 -3.60313832 2.72867115 -3.5625 1.0625 C-2.5625 0.0625 -2.5625 0.0625 0 0 Z " fill="#004594" transform="translate(345.5625,261.9375)"/>
<path d="M0 0 C2.125 0.375 2.125 0.375 4 1 C4.38218767 2.65614657 4.71395102 4.32457024 5 6 C4 7 4 7 1.4375 7.0625 C0.2309375 7.0315625 0.2309375 7.0315625 -1 7 C-1.625 4.625 -1.625 4.625 -2 2 C-1.34 1.34 -0.68 0.68 0 0 Z " fill="#00B358" transform="translate(299,297)"/>
<path d="M0 0 C1.2065625 0.0309375 1.2065625 0.0309375 2.4375 0.0625 C3.5625 3.8125 3.5625 3.8125 2.4375 6.0625 C0.7875 6.0625 -0.8625 6.0625 -2.5625 6.0625 C-2.94468767 4.40635343 -3.27645102 2.73792976 -3.5625 1.0625 C-2.5625 0.0625 -2.5625 0.0625 0 0 Z " fill="#004594" transform="translate(321.5625,258.9375)"/>
<path d="M0 0 C0 1.65 0 3.3 0 5 C-1.65614657 5.38218767 -3.32457024 5.71395102 -5 6 C-6 5 -6 5 -6.0625 2.4375 C-6.041875 1.633125 -6.02125 0.82875 -6 0 C-3.50907189 -1.24546405 -2.58919267 -0.7767578 0 0 Z " fill="#004594" transform="translate(337,272)"/>
</svg>
